<svg xmlns="http://www.w3.org/2000/svg" width="1024" height="1024" viewBox="0 0 1024 1024"><g transform="translate(0.000000,1024.000000) scale(0.200000,-0.200000)" fill="#5AD695" fill-rule="evenodd" stroke="none"><animate attributeName="fill" from="#5AD695" to="#9A3DB4" dur=".5s" calcMode="discrete" repeatCount="indefinite"/><path d="M0 2560 l0 -2560 2560 0 2560 0 0 2560 0 2560 -2560 0 -2560 0 0 -2560z m4960 0 l0 -2400 -2400 0 -2400 0 0 2400 0 2400 2400 0 2400 0 0 -2400z"/><path d="M320 2560 l0 -2240 2240 0 2240 0 0 2240 0 2240 -2240 0 -2240 0 0 -2240z m4320 0 l0 -2080 -2080 0 -2080 0 0 2080 0 2080 2080 0 2080 0 0 -2080z"/><path d="M640 2560 l0 -1920 1920 0 1920 0 0 1920 0 1920 -1920 0 -1920 0 0 -1920z m3680 0 l0 -1760 -1760 0 -1760 0 0 1760 0 1760 1760 0 1760 0 0 -1760z"/><path d="M960 2560 l0 -1600 1600 0 1600 0 0 1600 0 1600 -1600 0 -1600 0 0 -1600z m3040 0 l0 -1440 -1440 0 -1440 0 0 1440 0 1440 1440 0 1440 0 0 -1440z"/><path d="M1280 2560 l0 -1280 1280 0 1280 0 0 1280 0 1280 -1280 0 -1280 0 0 -1280z m2400 0 l0 -1120 -1120 0 -1120 0 0 1120 0 1120 1120 0 1120 0 0 -1120z"/><path d="M1600 2560 l0 -960 960 0 960 0 0 960 0 960 -960 0 -960 0 0 -960z m1760 0 l0 -800 -800 0 -800 0 0 800 0 800 800 0 800 0 0 -800z"/><path d="M1920 2560 l0 -640 640 0 640 0 0 640 0 640 -640 0 -640 0 0 -640z m1120 0 l0 -480 -480 0 -480 0 0 480 0 480 480 0 480 0 0 -480z"/><path d="M2240 2560 l0 -320 320 0 320 0 0 320 0 320 -320 0 -320 0 0 -320z m480 0 l0 -160 -160 0 -160 0 0 160 0 160 160 0 160 0 0 -160z"/></g><g transform="translate(0.000000,1024.000000) scale(0.200000,-0.200000)" fill="#9A3DB4" fill-rule="evenodd" stroke="none"><animate attributeName="fill" from="#9A3DB4" to="#5AD695" dur=".5s" calcMode="discrete" repeatCount="indefinite"/><path d="M160 2560 l0 -2400 2400 0 2400 0 0 2400 0 2400 -2400 0 -2400 0 0 -2400z m4640 0 l0 -2240 -2240 0 -2240 0 0 2240 0 2240 2240 0 2240 0 0 -2240z"/><path d="M480 2560 l0 -2080 2080 0 2080 0 0 2080 0 2080 -2080 0 -2080 0 0 -2080z m4000 0 l0 -1920 -1920 0 -1920 0 0 1920 0 1920 1920 0 1920 0 0 -1920z"/><path d="M800 2560 l0 -1760 1760 0 1760 0 0 1760 0 1760 -1760 0 -1760 0 0 -1760z m3360 0 l0 -1600 -1600 0 -1600 0 0 1600 0 1600 1600 0 1600 0 0 -1600z"/><path d="M1120 2560 l0 -1440 1440 0 1440 0 0 1440 0 1440 -1440 0 -1440 0 0 -1440z m2720 0 l0 -1280 -1280 0 -1280 0 0 1280 0 1280 1280 0 1280 0 0 -1280z"/><path d="M1440 2560 l0 -1120 1120 0 1120 0 0 1120 0 1120 -1120 0 -1120 0 0 -1120z m2080 0 l0 -960 -960 0 -960 0 0 960 0 960 960 0 960 0 0 -960z"/><path d="M1760 2560 l0 -800 800 0 800 0 0 800 0 800 -800 0 -800 0 0 -800z m1440 0 l0 -640 -640 0 -640 0 0 640 0 640 640 0 640 0 0 -640z"/><path d="M2080 2560 l0 -480 480 0 480 0 0 480 0 480 -480 0 -480 0 0 -480z m800 0 l0 -320 -320 0 -320 0 0 320 0 320 320 0 320 0 0 -320z"/><path d="M2400 2560 l0 -160 160 0 160 0 0 160 0 160 -160 0 -160 0 0 -160z"/></g></svg>